<?xml version="1.0" encoding="UTF-8"?>
<!DOCTYPE svg PUBLIC "-//W3C//DTD SVG 1.1//EN" "http://www.w3.org/Graphics/SVG/1.1/DTD/svg11.dtd">
<!-- Creator: CorelDRAW 2017 -->
<svg xmlns="http://www.w3.org/2000/svg" xml:space="preserve" width="10.8372mm" height="14.4778mm" version="1.1" style="shape-rendering:geometricPrecision; text-rendering:geometricPrecision; image-rendering:optimizeQuality; fill-rule:evenodd; clip-rule:evenodd"
viewBox="0 0 1083.72 1447.78"
 xmlns:xlink="http://www.w3.org/1999/xlink">
 <defs>
  <style type="text/css">
   <![CDATA[
    .fil3 {fill:#BD3438}
    .fil10 {fill:#0C90C9}
    .fil9 {fill:#0098DA}
    .fil0 {fill:#D58742}
    .fil7 {fill:#ECA601}
    .fil5 {fill:#FFD8A4}
    .fil4 {fill:url(#id0)}
    .fil6 {fill:url(#id1)}
    .fil8 {fill:url(#id2)}
    .fil1 {fill:url(#id3)}
    .fil2 {fill:url(#id4)}
   ]]>
  </style>
  <linearGradient id="id0" gradientUnits="userSpaceOnUse" x1="483.38" y1="1130.91" x2="485.28" y2="750.54">
   <stop offset="0" style="stop-opacity:1; stop-color:#ED3237"/>
   <stop offset="1" style="stop-opacity:1; stop-color:#BD3438"/>
  </linearGradient>
  <linearGradient id="id1" gradientUnits="userSpaceOnUse" x1="442.86" y1="892.52" x2="1247.11" y2="545.52">
   <stop offset="0" style="stop-opacity:1; stop-color:#ECA601"/>
   <stop offset="0.0117647" style="stop-opacity:1; stop-color:#F5CC09"/>
   <stop offset="0.0588235" style="stop-opacity:1; stop-color:#E3AD19"/>
   <stop offset="0.258824" style="stop-opacity:1; stop-color:#F4C620"/>
   <stop offset="0.470588" style="stop-opacity:1; stop-color:#F8D42D"/>
   <stop offset="1" style="stop-opacity:1; stop-color:#FFF212"/>
  </linearGradient>
  <linearGradient id="id2" gradientUnits="userSpaceOnUse" x1="442.86" y1="892.53" x2="1247.11" y2="545.53">
   <stop offset="0" style="stop-opacity:1; stop-color:#0098DA"/>
   <stop offset="0.0117647" style="stop-opacity:1; stop-color:#00A3E4"/>
   <stop offset="0.0588235" style="stop-opacity:1; stop-color:#0C90C9"/>
   <stop offset="0.258824" style="stop-opacity:1; stop-color:#0098DA"/>
   <stop offset="0.470588" style="stop-opacity:1; stop-color:#0098DA"/>
   <stop offset="1" style="stop-opacity:1; stop-color:#00AFEF"/>
  </linearGradient>
  <linearGradient id="id3" gradientUnits="userSpaceOnUse" xlink:href="#id0" x1="483.39" y1="1130.91" x2="485.29" y2="750.52">
  </linearGradient>
  <linearGradient id="id4" gradientUnits="userSpaceOnUse" xlink:href="#id0" x1="483.39" y1="1130.91" x2="485.29" y2="750.51">
  </linearGradient>
 </defs>
 <g id="Capa_x0020_1">
  <metadata id="CorelCorpID_0Corel-Layer"/>
  <g id="_2907538780864">
   <path class="fil0" d="M691.15 1177.62l0.3 -4.46c-20.85,5.66 7.39,13.14 -55.49,53.95 -16.4,10.64 -48.61,33.62 -68.17,39.89 -50.56,16.21 -114.04,-47.95 -148.75,-62.79 1.53,7.74 -0.27,3.22 4.29,7.74l58.86 37.04c21.31,12.77 50.69,32.24 84.2,23.76 18.38,-4.65 53.26,-29.37 68.74,-39.24 11.72,-7.49 22.32,-14.25 32.58,-22.64 7.09,-5.8 6.7,-5.25 11.85,-14.59 4.25,-7.7 5.44,-13.37 11.59,-18.66z"/>
   <path class="fil0" d="M511.68 1168.31c5.35,5.49 19.31,17.1 29.47,19.05l0.78 -9.43 -0.13 -12.02 -0.64 -28.52c-10.92,2.59 -24.07,21.42 -29.48,30.92z"/>
   <path class="fil1" d="M272.57 1083.96c2.96,-5.19 -5.24,-6.98 -9.87,-21.32 -7.81,-24.15 -13.55,-74.43 -8.73,-97.72 17.53,-10.14 20.49,-8.57 34.04,5.2 6.24,6.34 7.4,6.67 12.64,13.77 4.06,5.49 7.54,10.24 12.42,13.96 17.98,-59.91 20.41,-42.57 -6.56,-49.05 -6.24,-19.52 7.4,-192.34 41.7,-230.69 8.5,-9.51 12.5,-15.25 25.88,-19.54 13.91,-4.46 24.95,-5.8 37.37,1.32 34.22,19.62 61.73,69.05 78.98,103.66 30.34,60.84 30.48,88.21 49.28,133.18 10.44,-18.7 19.9,-44.07 29.21,-64.94 18.16,-40.69 85.02,-162.49 121.65,-171.9 12.81,-3.3 29.77,2.44 39.33,8.14 21.31,12.7 44.06,70.67 51.08,95.3 7.95,27.93 9.03,55.86 9.12,86.34 0.14,46.9 2.2,47.42 -32.97,63.91l17.12 42.15c5.23,-5.48 4.84,-7.94 9.08,-15.04 6.69,-11.18 29.13,-33.52 48.3,-31.06 3.79,18.19 0.31,34.7 -2.4,53.03 -1.25,8.43 -2.32,16.41 -3.78,24.97l-3.14 18.39c0.91,8.61 -3.16,2.22 2.94,6.97 35.11,-25.56 36.8,-16.54 54.52,-43.01l114.78 -173.4c9.06,-13.86 47.87,-67.12 47.93,-79.33 -16.85,1.66 -108.97,61.09 -130.57,67.13l49.45 -57.35 35.86 -180.01c5.52,-28.14 14.53,-62.09 17.89,-90.29 -11.27,3.37 -40.89,33.08 -52.59,43.58l-48.67 43.77c3.06,-38.79 15.11,-49.86 5.13,-91.6 -6.72,-28.14 -14.01,-54.02 -21.2,-82.19l-37.53 -144.96c-2.47,-10.15 -1.2,-11.24 -7.63,-15.95 -7.96,2.87 -10.74,20.02 -13.73,27.78 -7.93,20.57 -31.7,71.04 -43.05,84.24 -3.25,-54.52 -8.13,-84.12 -25.02,-131.63 -6.65,-18.72 -13.34,-38.03 -21.04,-55.73l-18.21 -39.36c-5.13,-10.69 -1.22,-7.31 -8.6,-10.99l-56.18 140.77c-9.16,-23.25 -12.98,-43.79 -24.33,-67.03 -16.41,-33.6 -47.6,-73.46 -69.22,-110.92 -5.72,-9.91 -25.47,-51.43 -34.45,-53.24 -8.73,13.79 -34.89,108.79 -55.19,147.74 -18.38,35.27 -61.28,81.4 -88.65,111.35l10.5 -83.11c-9.38,3.26 -7.65,3.42 -17.1,18.21 -32.42,50.78 -56.25,84.78 -77.46,148.3 -20.53,-20.13 -41.72,-133.13 -52.91,-146.01 -9.73,7.78 -63,178.94 -71.33,206.71 -10.89,36.3 -19.93,73.13 -27.33,112.01 -6.36,33.39 -7.21,26.17 4.96,55.4 6.09,14.61 15.88,34.75 19.53,49.92 -18.17,-10.12 -105.69,-90.09 -125.04,-110.01 -3.92,-4.03 -7,-9.1 -12.9,-10.47 -5.14,-1.2 -1.35,-0.98 -4.52,0.49 -3.33,13.06 54.19,237.66 66.73,282.26 8.15,29.02 6.75,28.04 25.27,44.59l70.68 66.18c-28.51,1.21 -84.06,-20.83 -111.51,-17.99 5.15,11.55 69.29,88.51 78.15,99.44 43.92,54.2 29.38,49.63 101.89,75.68z"/>
   <path class="fil2" d="M691.45 1173.16l-0.3 4.46 4.18 0.22c59.16,-30.85 117.62,-66.8 176.63,-98.88 18.25,-9.91 19.61,-7.9 21.4,-17.49l-40.64 -1.79 -33.09 -0.72c-15.47,19.29 -20.58,24.23 -42.7,37.84 -8.86,5.45 -15.17,9.55 -23.99,14.42 -16.57,9.15 -14.01,6.39 -31.2,4.57l-30.29 57.37z"/>
   <path class="fil3" d="M379.02 1023.09c21.5,14.93 53.74,20.83 58.03,35.14 5.21,17.36 -0.64,8.87 8.4,14.21 15.9,10.85 17.29,-14.77 47.06,9.78 9.57,3.02 19.18,11.02 28.44,10.58 2.17,-11.71 -20.12,-25.34 -35.42,-36.9 -14.83,-11.2 -27.36,-20.18 -42.99,-31.44 -15.06,-10.85 -73.27,-59.72 -98.36,-46.17l-1.92 3.55c-0.95,3.16 -0.92,-0.05 -1.45,6.28 -1,12.01 3.66,23.77 9.13,32.96l29.08 2.01z"/>
   <path class="fil3" d="M581.16 1088.27l29.53 -20.68c7.64,2.76 14.14,12.47 27.41,5.97 10.92,-5.35 8.8,-14.42 8.19,-27.94 21.43,-8.03 43.75,-29.85 70.98,-32.05l18.4 -0.36c-0.4,-15.28 -14.34,-30.78 -24.06,-35.76 -11.21,-1.99 -131.58,92.77 -137.5,99.15 -7.98,8.58 -5.38,15.51 7.05,11.67z"/>
   <path class="fil4" d="M380.4 1168.89c4.66,-3.02 8.84,5.49 -3.6,-18.6 -3.38,-6.54 -5.08,-11.31 -10.03,-18.79 -42.36,-4.83 -40.65,-21.73 -68.55,-27.01l-35.4 10.98c1.98,5.5 2.67,5.44 12.31,9.19l105.27 44.23z"/>
   <path class="fil5" d="M511.68 1168.31c5.41,-9.5 18.56,-28.33 29.48,-30.92l0.64 28.52 0.13 12.02 -0.78 9.43c-10.16,-1.95 -24.12,-13.56 -29.47,-19.05zm69.48 -80.04c-12.43,3.84 -15.03,-3.09 -7.05,-11.67 5.92,-6.38 126.29,-101.14 137.5,-99.15 9.72,4.98 23.66,20.48 24.06,35.76l-18.4 0.36c-8.79,22.36 -21.45,52.57 -36,69.34 -13.16,4.74 -33.19,4.54 -48.87,6.28 -17.42,1.93 -39.21,7.26 -51.24,-0.92zm-88.65 -6.05c1.37,9.73 1.97,2.4 -0.24,7.75 -23.91,7.66 -72.96,-3.54 -101.56,-5.14l-18.21 -58.24c3.07,-4.41 -6.52,-3.74 6.52,-3.5l-29.08 -2.01c-5.47,-9.19 -10.13,-20.95 -9.13,-32.96 0.53,-6.33 0.5,-3.12 1.45,-6.28l1.92 -3.55c25.09,-13.55 83.3,35.32 98.36,46.17 15.63,11.26 28.16,20.24 42.99,31.44 15.3,11.56 37.59,25.19 35.42,36.9 -9.26,0.44 -18.87,-7.56 -28.44,-10.58zm-219.94 1.74l25.65 20.53c27.9,5.28 26.19,22.18 68.55,27.01 4.95,7.48 6.65,12.25 10.03,18.79 12.44,24.09 8.26,15.58 3.6,18.6l6.73 5.18c3.27,2.87 1.14,0.77 4.56,4.76l24.02 27.92c-1.73,8.89 -6.56,19.84 -9.58,30.51 -4.75,16.76 -0.86,18.33 -15.57,25.31 -16.57,7.87 -41.36,21.19 -56.5,25.81 -0.1,18.07 -13.98,1.72 -14.96,28.67 -1.36,37.25 19.95,67.23 58.98,76.83 106.76,26.26 212.59,27.78 318.99,2.56 26.91,-6.38 41.82,-17.75 53.57,-35.34 20.46,-30.63 14.31,-34.64 18.17,-72.72 -18.94,-4.63 -50.87,-20.24 -61.14,-32.07 -11.26,-12.97 -16.09,-58.55 -12.34,-78.47l-4.18 -0.22c-6.15,5.29 -7.34,10.96 -11.59,18.66 -5.15,9.34 -4.76,8.79 -11.85,14.59 -10.26,8.39 -20.86,15.15 -32.58,22.64 -15.48,9.87 -50.36,34.59 -68.74,39.24 -33.51,8.48 -62.89,-10.99 -84.2,-23.76l-58.86 -37.04c-4.56,-4.52 -2.76,0 -4.29,-7.74 34.71,14.84 98.19,79 148.75,62.79 19.56,-6.27 51.77,-29.25 68.17,-39.89 62.88,-40.81 34.64,-48.29 55.49,-53.95l30.29 -57.37c17.19,1.82 14.63,4.58 31.2,-4.57 8.82,-4.87 15.13,-8.97 23.99,-14.42 22.12,-13.61 27.23,-18.55 42.7,-37.84l33.09 0.72c-5.42,-1.85 -11.5,-2.47 -19.23,-3.23 -13.45,-1.34 -13.85,1.47 -8.23,-3.46 -6.1,-4.75 -2.03,1.64 -2.94,-6.97l3.14 -18.39c1.46,-8.56 2.53,-16.54 3.78,-24.97 2.71,-18.33 6.19,-34.84 2.4,-53.03 -19.17,-2.46 -41.61,19.88 -48.3,31.06 -4.24,7.1 -3.85,9.56 -9.08,15.04l-17.12 -42.15c35.17,-16.49 33.11,-17.01 32.97,-63.91 -0.09,-30.48 -1.17,-58.41 -9.12,-86.34 -7.02,-24.63 -29.77,-82.6 -51.08,-95.3 -9.56,-5.7 -26.52,-11.44 -39.33,-8.14 -36.63,9.41 -103.49,131.21 -121.65,171.9 -9.31,20.87 -18.77,46.24 -29.21,64.94 -18.8,-44.97 -18.94,-72.34 -49.28,-133.18 -17.25,-34.61 -44.76,-84.04 -78.98,-103.66 -12.42,-7.12 -23.46,-5.78 -37.37,-1.32 -13.38,4.29 -17.38,10.03 -25.88,19.54 -34.3,38.35 -47.94,211.17 -41.7,230.69 26.97,6.48 24.54,-10.86 6.56,49.05 -4.88,-3.72 -8.36,-8.47 -12.42,-13.96 -5.24,-7.1 -6.4,-7.43 -12.64,-13.77 -13.55,-13.77 -16.51,-15.34 -34.04,-5.2 -4.82,23.29 0.92,73.57 8.73,97.72 4.63,14.34 12.83,16.13 9.87,21.32z"/>
  </g>
  <path class="fil0" d="M691.15 1177.62l0.3 -4.46c-20.85,5.66 7.39,13.14 -55.49,53.95 -16.4,10.64 -48.61,33.62 -68.17,39.89 -50.56,16.21 -114.04,-47.95 -148.75,-62.79 1.53,7.74 -0.27,3.22 4.29,7.74l58.86 37.04c21.31,12.77 50.69,32.24 84.2,23.76 18.38,-4.65 53.26,-29.37 68.74,-39.24 11.72,-7.49 22.32,-14.25 32.58,-22.64 7.09,-5.8 6.7,-5.25 11.85,-14.59 4.25,-7.7 5.44,-13.37 11.59,-18.66z"/>
  <path class="fil0" d="M511.68 1168.31c5.35,5.49 19.31,17.1 29.47,19.05l0.78 -9.43 -0.13 -12.02 -0.64 -28.52c-10.92,2.59 -24.07,21.42 -29.48,30.92z"/>
  <path class="fil6" d="M272.57 1083.96c2.96,-5.19 -5.24,-6.98 -9.87,-21.32 -7.81,-24.15 -13.55,-74.43 -8.73,-97.72 17.53,-10.14 20.49,-8.57 34.04,5.2 6.24,6.34 7.4,6.67 12.64,13.77 4.06,5.49 7.54,10.24 12.42,13.96 17.98,-59.91 20.41,-42.57 -6.56,-49.05 -6.24,-19.52 7.4,-192.34 41.7,-230.69 8.5,-9.51 12.5,-15.25 25.88,-19.54 13.91,-4.46 24.95,-5.8 37.37,1.32 34.22,19.62 61.73,69.05 78.98,103.66 30.34,60.84 30.48,88.21 49.28,133.18 10.44,-18.7 19.9,-44.07 29.21,-64.94 18.16,-40.69 85.02,-162.49 121.65,-171.9 12.81,-3.3 29.77,2.44 39.33,8.14 21.31,12.7 44.06,70.67 51.08,95.3 7.95,27.93 9.03,55.86 9.12,86.34 0.14,46.9 2.2,47.42 -32.97,63.91l17.12 42.15c5.23,-5.48 4.84,-7.94 9.08,-15.04 6.69,-11.18 29.13,-33.52 48.3,-31.06 3.79,18.19 0.31,34.7 -2.4,53.03 -1.25,8.43 -2.32,16.41 -3.78,24.97l-3.14 18.39c0.91,8.61 -3.16,2.22 2.94,6.97 35.11,-25.56 36.8,-16.54 54.52,-43.01l114.78 -173.4c9.06,-13.86 47.87,-67.12 47.93,-79.33 -16.85,1.66 -108.97,61.09 -130.57,67.13l49.45 -57.35 35.86 -180.01c5.52,-28.14 14.53,-62.09 17.89,-90.29 -11.27,3.37 -40.89,33.08 -52.59,43.58l-48.67 43.77c3.06,-38.79 15.11,-49.86 5.13,-91.6 -6.72,-28.14 -14.01,-54.02 -21.2,-82.19l-37.53 -144.96c-2.47,-10.15 -1.2,-11.24 -7.63,-15.95 -7.96,2.87 -10.74,20.02 -13.73,27.78 -7.93,20.57 -31.7,71.04 -43.05,84.24 -3.25,-54.52 -8.13,-84.12 -25.02,-131.63 -6.65,-18.72 -13.34,-38.03 -21.04,-55.73l-18.21 -39.36c-5.13,-10.69 -1.22,-7.31 -8.6,-10.99l-56.18 140.77c-9.16,-23.25 -12.98,-43.79 -24.33,-67.03 -16.41,-33.6 -47.6,-73.46 -69.22,-110.92 -5.72,-9.91 -25.47,-51.43 -34.45,-53.24 -8.73,13.79 -34.89,108.79 -55.19,147.74 -18.38,35.27 -61.28,81.4 -88.65,111.35l10.5 -83.11c-9.38,3.26 -7.65,3.42 -17.1,18.21 -32.42,50.78 -56.25,84.78 -77.46,148.3 -20.53,-20.13 -41.72,-133.13 -52.91,-146.01 -9.73,7.78 -63,178.94 -71.33,206.71 -10.89,36.3 -19.93,73.13 -27.33,112.01 -6.36,33.39 -7.21,26.17 4.96,55.4 6.09,14.61 15.88,34.75 19.53,49.92 -18.17,-10.12 -105.69,-90.09 -125.04,-110.01 -3.92,-4.03 -7,-9.1 -12.9,-10.47 -5.14,-1.2 -1.35,-0.98 -4.52,0.49 -3.33,13.06 54.19,237.66 66.73,282.26 8.15,29.02 6.75,28.04 25.27,44.59l70.68 66.18c-28.51,1.21 -84.06,-20.83 -111.51,-17.99 5.15,11.55 69.29,88.51 78.15,99.44 43.92,54.2 29.38,49.63 101.89,75.68z"/>
  <path class="fil7" d="M691.45 1173.16l-0.3 4.46 4.18 0.22c59.16,-30.85 117.62,-66.8 176.63,-98.88 18.25,-9.91 19.61,-7.9 21.4,-17.49l-40.64 -1.79 -33.09 -0.72c-15.47,19.29 -20.58,24.23 -42.7,37.84 -8.86,5.45 -15.17,9.55 -23.99,14.42 -16.57,9.15 -14.01,6.39 -31.2,4.57l-30.29 57.37z"/>
  <path class="fil7" d="M379.02 1023.09c21.5,14.93 53.74,20.83 58.03,35.14 5.21,17.36 -0.64,8.87 8.4,14.21 15.9,10.85 17.29,-14.77 47.06,9.78 9.57,3.02 19.18,11.02 28.44,10.58 2.17,-11.71 -20.12,-25.34 -35.42,-36.9 -14.83,-11.2 -27.36,-20.18 -42.99,-31.44 -15.06,-10.85 -73.27,-59.72 -98.36,-46.17l-1.92 3.55c-0.95,3.16 -0.92,-0.05 -1.45,6.28 -1,12.01 3.66,23.77 9.13,32.96l29.08 2.01z"/>
  <path class="fil7" d="M581.16 1088.27l29.53 -20.68c7.64,2.76 14.14,12.47 27.41,5.97 10.92,-5.35 8.8,-14.42 8.19,-27.94 21.43,-8.03 43.75,-29.85 70.98,-32.05l18.4 -0.36c-0.4,-15.28 -14.34,-30.78 -24.06,-35.76 -11.21,-1.99 -131.58,92.77 -137.5,99.15 -7.98,8.58 -5.38,15.51 7.05,11.67z"/>
  <path class="fil7" d="M380.4 1168.89c4.66,-3.02 8.84,5.49 -3.6,-18.6 -3.38,-6.54 -5.08,-11.31 -10.03,-18.79 -42.36,-4.83 -40.65,-21.73 -68.55,-27.01l-35.4 10.98c1.98,5.5 2.67,5.44 12.31,9.19l105.27 44.23z"/>
  <path class="fil5" d="M511.68 1168.31c5.41,-9.5 18.56,-28.33 29.48,-30.92l0.64 28.52 0.13 12.02 -0.78 9.43c-10.16,-1.95 -24.12,-13.56 -29.47,-19.05zm69.48 -80.04c-12.43,3.84 -15.03,-3.09 -7.05,-11.67 5.92,-6.38 126.29,-101.14 137.5,-99.15 9.72,4.98 23.66,20.48 24.06,35.76l-18.4 0.36c-8.79,22.36 -21.45,52.57 -36,69.34 -13.16,4.74 -33.19,4.54 -48.87,6.28 -17.42,1.93 -39.21,7.26 -51.24,-0.92zm-88.65 -6.05c1.37,9.73 1.97,2.4 -0.24,7.75 -23.91,7.66 -72.96,-3.54 -101.56,-5.14l-18.21 -58.24c3.07,-4.41 -6.52,-3.74 6.52,-3.5l-29.08 -2.01c-5.47,-9.19 -10.13,-20.95 -9.13,-32.96 0.53,-6.33 0.5,-3.12 1.45,-6.28l1.92 -3.55c25.09,-13.55 83.3,35.32 98.36,46.17 15.63,11.26 28.16,20.24 42.99,31.44 15.3,11.56 37.59,25.19 35.42,36.9 -9.26,0.44 -18.87,-7.56 -28.44,-10.58zm-219.94 1.74l25.65 20.53c27.9,5.28 26.19,22.18 68.55,27.01 4.95,7.48 6.65,12.25 10.03,18.79 12.44,24.09 8.26,15.58 3.6,18.6l6.73 5.18c3.27,2.87 1.14,0.77 4.56,4.76l24.02 27.92c-1.73,8.89 -6.56,19.84 -9.58,30.51 -4.75,16.76 -0.86,18.33 -15.57,25.31 -16.57,7.87 -41.36,21.19 -56.5,25.81 -0.1,18.07 -13.98,1.72 -14.96,28.67 -1.36,37.25 19.95,67.23 58.98,76.83 106.76,26.26 212.59,27.78 318.99,2.56 26.91,-6.38 41.82,-17.75 53.57,-35.34 20.46,-30.63 14.31,-34.64 18.17,-72.72 -18.94,-4.63 -50.87,-20.24 -61.14,-32.07 -11.26,-12.97 -16.09,-58.55 -12.34,-78.47l-4.18 -0.22c-6.15,5.29 -7.34,10.96 -11.59,18.66 -5.15,9.34 -4.76,8.79 -11.85,14.59 -10.26,8.39 -20.86,15.15 -32.58,22.64 -15.48,9.87 -50.36,34.59 -68.74,39.24 -33.51,8.48 -62.89,-10.99 -84.2,-23.76l-58.86 -37.04c-4.56,-4.52 -2.76,0 -4.29,-7.74 34.71,14.84 98.19,79 148.75,62.79 19.56,-6.27 51.77,-29.25 68.17,-39.89 62.88,-40.81 34.64,-48.29 55.49,-53.95l30.29 -57.37c17.19,1.82 14.63,4.58 31.2,-4.57 8.82,-4.87 15.13,-8.97 23.99,-14.42 22.12,-13.61 27.23,-18.55 42.7,-37.84l33.09 0.72c-5.42,-1.85 -11.5,-2.47 -19.23,-3.23 -13.45,-1.34 -13.85,1.47 -8.23,-3.46 -6.1,-4.75 -2.03,1.64 -2.94,-6.97l3.14 -18.39c1.46,-8.56 2.53,-16.54 3.78,-24.97 2.71,-18.33 6.19,-34.84 2.4,-53.03 -19.17,-2.46 -41.61,19.88 -48.3,31.06 -4.24,7.1 -3.85,9.56 -9.08,15.04l-17.12 -42.15c35.17,-16.49 33.11,-17.01 32.97,-63.91 -0.09,-30.48 -1.17,-58.41 -9.12,-86.34 -7.02,-24.63 -29.77,-82.6 -51.08,-95.3 -9.56,-5.7 -26.52,-11.44 -39.33,-8.14 -36.63,9.41 -103.49,131.21 -121.65,171.9 -9.31,20.87 -18.77,46.24 -29.21,64.94 -18.8,-44.97 -18.94,-72.34 -49.28,-133.18 -17.25,-34.61 -44.76,-84.04 -78.98,-103.66 -12.42,-7.12 -23.46,-5.78 -37.37,-1.32 -13.38,4.29 -17.38,10.03 -25.88,19.54 -34.3,38.35 -47.94,211.17 -41.7,230.69 26.97,6.48 24.54,-10.86 6.56,49.05 -4.88,-3.72 -8.36,-8.47 -12.42,-13.96 -5.24,-7.1 -6.4,-7.43 -12.64,-13.77 -13.55,-13.77 -16.51,-15.34 -34.04,-5.2 -4.82,23.29 0.92,73.57 8.73,97.72 4.63,14.34 12.83,16.13 9.87,21.32z"/>
  <g id="_2907538839008">
   <path class="fil0" d="M691.15 1177.63l0.3 -4.46c-20.85,5.66 7.39,13.14 -55.49,53.95 -16.4,10.64 -48.61,33.62 -68.17,39.89 -50.56,16.21 -114.04,-47.95 -148.75,-62.79 1.53,7.74 -0.27,3.22 4.29,7.74l58.86 37.04c21.31,12.77 50.69,32.24 84.2,23.76 18.38,-4.65 53.26,-29.37 68.74,-39.24 11.72,-7.49 22.32,-14.25 32.58,-22.64 7.09,-5.8 6.7,-5.25 11.85,-14.59 4.25,-7.7 5.44,-13.37 11.59,-18.66z"/>
   <path class="fil0" d="M511.68 1168.32c5.35,5.49 19.31,17.1 29.47,19.05l0.78 -9.43 -0.13 -12.02 -0.64 -28.52c-10.92,2.59 -24.07,21.42 -29.48,30.92z"/>
   <path class="fil8" d="M272.57 1083.97c2.96,-5.19 -5.24,-6.98 -9.87,-21.32 -7.81,-24.15 -13.55,-74.43 -8.73,-97.72 17.53,-10.14 20.49,-8.57 34.04,5.2 6.24,6.34 7.4,6.67 12.64,13.77 4.06,5.49 7.54,10.24 12.42,13.96 17.98,-59.91 20.41,-42.57 -6.56,-49.05 -6.24,-19.52 7.4,-192.34 41.7,-230.69 8.5,-9.51 12.5,-15.25 25.88,-19.54 13.91,-4.46 24.95,-5.8 37.37,1.32 34.22,19.62 61.73,69.05 78.98,103.66 30.34,60.84 30.48,88.21 49.28,133.18 10.44,-18.7 19.9,-44.07 29.21,-64.94 18.16,-40.69 85.02,-162.49 121.65,-171.9 12.81,-3.3 29.77,2.44 39.33,8.14 21.31,12.7 44.06,70.67 51.08,95.3 7.95,27.93 9.03,55.86 9.12,86.34 0.14,46.9 2.2,47.42 -32.97,63.91l17.12 42.15c5.23,-5.48 4.84,-7.94 9.08,-15.04 6.69,-11.18 29.13,-33.52 48.3,-31.06 3.79,18.19 0.31,34.7 -2.4,53.03 -1.25,8.43 -2.32,16.41 -3.78,24.97l-3.14 18.39c0.91,8.61 -3.16,2.22 2.94,6.97 35.11,-25.56 36.8,-16.54 54.52,-43.01l114.78 -173.4c9.06,-13.86 47.87,-67.12 47.93,-79.33 -16.85,1.66 -108.97,61.09 -130.57,67.13l49.45 -57.35 35.86 -180.01c5.52,-28.14 14.53,-62.09 17.89,-90.29 -11.27,3.37 -40.89,33.08 -52.59,43.58l-48.67 43.77c3.06,-38.79 15.11,-49.86 5.13,-91.6 -6.72,-28.14 -14.01,-54.02 -21.2,-82.19l-37.53 -144.96c-2.47,-10.15 -1.2,-11.24 -7.63,-15.95 -7.96,2.87 -10.74,20.02 -13.73,27.78 -7.93,20.57 -31.7,71.04 -43.05,84.24 -3.25,-54.52 -8.13,-84.12 -25.02,-131.63 -6.65,-18.72 -13.34,-38.03 -21.04,-55.73l-18.21 -39.36c-5.13,-10.69 -1.22,-7.31 -8.6,-10.99l-56.18 140.77c-9.16,-23.25 -12.98,-43.79 -24.33,-67.03 -16.41,-33.6 -47.6,-73.46 -69.22,-110.92 -5.72,-9.91 -25.47,-51.43 -34.45,-53.24 -8.73,13.79 -34.89,108.79 -55.19,147.74 -18.38,35.27 -61.28,81.4 -88.65,111.35l10.5 -83.11c-9.38,3.26 -7.65,3.42 -17.1,18.21 -32.42,50.78 -56.25,84.78 -77.46,148.3 -20.53,-20.13 -41.72,-133.13 -52.91,-146.01 -9.73,7.78 -63,178.94 -71.33,206.71 -10.89,36.3 -19.93,73.13 -27.33,112.01 -6.36,33.39 -7.21,26.17 4.96,55.4 6.09,14.61 15.88,34.75 19.53,49.92 -18.17,-10.12 -105.69,-90.09 -125.04,-110.01 -3.92,-4.03 -7,-9.1 -12.9,-10.47 -5.14,-1.2 -1.35,-0.98 -4.52,0.49 -3.33,13.06 54.19,237.66 66.73,282.26 8.15,29.02 6.75,28.04 25.27,44.59l70.68 66.18c-28.51,1.21 -84.06,-20.83 -111.51,-17.99 5.15,11.55 69.29,88.51 78.15,99.44 43.92,54.2 29.38,49.63 101.89,75.68z"/>
   <path class="fil9" d="M691.45 1173.17l-0.3 4.46 4.18 0.22c59.16,-30.85 117.62,-66.8 176.63,-98.88 18.25,-9.91 19.61,-7.9 21.4,-17.49l-40.64 -1.79 -33.09 -0.72c-15.47,19.29 -20.58,24.23 -42.7,37.84 -8.86,5.45 -15.17,9.55 -23.99,14.42 -16.57,9.15 -14.01,6.39 -31.2,4.57l-30.29 57.37z"/>
   <path class="fil10" d="M379.02 1023.1c21.5,14.93 53.74,20.83 58.03,35.14 5.21,17.36 -0.64,8.87 8.4,14.21 15.9,10.85 17.29,-14.77 47.06,9.78 9.57,3.02 19.18,11.02 28.44,10.58 2.17,-11.71 -20.12,-25.34 -35.42,-36.9 -14.83,-11.2 -27.36,-20.18 -42.99,-31.44 -15.06,-10.85 -73.27,-59.72 -98.36,-46.17l-1.92 3.55c-0.95,3.16 -0.92,-0.05 -1.45,6.28 -1,12.01 3.66,23.77 9.13,32.96l29.08 2.01z"/>
   <path class="fil10" d="M581.16 1088.28l29.53 -20.68c7.64,2.76 14.14,12.47 27.41,5.97 10.92,-5.35 8.8,-14.42 8.19,-27.94 21.43,-8.03 43.75,-29.85 70.98,-32.05l18.4 -0.36c-0.4,-15.28 -14.34,-30.78 -24.06,-35.76 -11.21,-1.99 -131.58,92.77 -137.5,99.15 -7.98,8.58 -5.38,15.51 7.05,11.67z"/>
   <path class="fil9" d="M380.4 1168.9c4.66,-3.02 8.84,5.49 -3.6,-18.6 -3.38,-6.54 -5.08,-11.31 -10.03,-18.79 -42.36,-4.83 -40.65,-21.73 -68.55,-27.01l-35.4 10.98c1.98,5.5 2.67,5.44 12.31,9.19l105.27 44.23z"/>
   <path class="fil5" d="M511.68 1168.32c5.41,-9.5 18.56,-28.33 29.48,-30.92l0.64 28.52 0.13 12.02 -0.78 9.43c-10.16,-1.95 -24.12,-13.56 -29.47,-19.05zm69.48 -80.04c-12.43,3.84 -15.03,-3.09 -7.05,-11.67 5.92,-6.38 126.29,-101.14 137.5,-99.15 9.72,4.98 23.66,20.48 24.06,35.76l-18.4 0.36c-8.79,22.36 -21.45,52.57 -36,69.34 -13.16,4.74 -33.19,4.54 -48.87,6.28 -17.42,1.93 -39.21,7.26 -51.24,-0.92zm-88.65 -6.05c1.37,9.73 1.97,2.4 -0.24,7.75 -23.91,7.66 -72.96,-3.54 -101.56,-5.14l-18.21 -58.24c3.07,-4.41 -6.52,-3.74 6.52,-3.5l-29.08 -2.01c-5.47,-9.19 -10.13,-20.95 -9.13,-32.96 0.53,-6.33 0.5,-3.12 1.45,-6.28l1.92 -3.55c25.09,-13.55 83.3,35.32 98.36,46.17 15.63,11.26 28.16,20.24 42.99,31.44 15.3,11.56 37.59,25.19 35.42,36.9 -9.26,0.44 -18.87,-7.56 -28.44,-10.58zm-219.94 1.74l25.65 20.53c27.9,5.28 26.19,22.18 68.55,27.01 4.95,7.48 6.65,12.25 10.03,18.79 12.44,24.09 8.26,15.58 3.6,18.6l6.73 5.18c3.27,2.87 1.14,0.77 4.56,4.76l24.02 27.92c-1.73,8.89 -6.56,19.84 -9.58,30.51 -4.75,16.76 -0.86,18.33 -15.57,25.31 -16.57,7.87 -41.36,21.19 -56.5,25.81 -0.1,18.07 -13.98,1.72 -14.96,28.67 -1.36,37.25 19.95,67.23 58.98,76.83 106.76,26.26 212.59,27.78 318.99,2.56 26.91,-6.38 41.82,-17.75 53.57,-35.34 20.46,-30.63 14.31,-34.64 18.17,-72.72 -18.94,-4.63 -50.87,-20.24 -61.14,-32.07 -11.26,-12.97 -16.09,-58.55 -12.34,-78.47l-4.18 -0.22c-6.15,5.29 -7.34,10.96 -11.59,18.66 -5.15,9.34 -4.76,8.79 -11.85,14.59 -10.26,8.39 -20.86,15.15 -32.58,22.64 -15.48,9.87 -50.36,34.59 -68.74,39.24 -33.51,8.48 -62.89,-10.99 -84.2,-23.76l-58.86 -37.04c-4.56,-4.52 -2.76,0 -4.29,-7.74 34.71,14.84 98.19,79 148.75,62.79 19.56,-6.27 51.77,-29.25 68.17,-39.89 62.88,-40.81 34.64,-48.29 55.49,-53.95l30.29 -57.37c17.19,1.82 14.63,4.58 31.2,-4.57 8.82,-4.87 15.13,-8.97 23.99,-14.42 22.12,-13.61 27.23,-18.55 42.7,-37.84l33.09 0.72c-5.42,-1.85 -11.5,-2.47 -19.23,-3.23 -13.45,-1.34 -13.85,1.47 -8.23,-3.46 -6.1,-4.75 -2.03,1.64 -2.94,-6.97l3.14 -18.39c1.46,-8.56 2.53,-16.54 3.78,-24.97 2.71,-18.33 6.19,-34.84 2.4,-53.03 -19.17,-2.46 -41.61,19.88 -48.3,31.06 -4.24,7.1 -3.85,9.56 -9.08,15.04l-17.12 -42.15c35.17,-16.49 33.11,-17.01 32.97,-63.91 -0.09,-30.48 -1.17,-58.41 -9.12,-86.34 -7.02,-24.63 -29.77,-82.6 -51.08,-95.3 -9.56,-5.7 -26.52,-11.44 -39.33,-8.14 -36.63,9.41 -103.49,131.21 -121.65,171.9 -9.31,20.87 -18.77,46.24 -29.21,64.94 -18.8,-44.97 -18.94,-72.34 -49.28,-133.18 -17.25,-34.61 -44.76,-84.04 -78.98,-103.66 -12.42,-7.12 -23.46,-5.78 -37.37,-1.32 -13.38,4.29 -17.38,10.03 -25.88,19.54 -34.3,38.35 -47.94,211.17 -41.7,230.69 26.97,6.48 24.54,-10.86 6.56,49.05 -4.88,-3.72 -8.36,-8.47 -12.42,-13.96 -5.24,-7.1 -6.4,-7.43 -12.64,-13.77 -13.55,-13.77 -16.51,-15.34 -34.04,-5.2 -4.82,23.29 0.92,73.57 8.73,97.72 4.63,14.34 12.83,16.13 9.87,21.32z"/>
  </g>
 </g>
</svg>
